<?xml version="1.0" encoding="UTF-8"?>
<svg height="16px" viewBox="0 0 16 16" width="16px" xmlns="http://www.w3.org/2000/svg">
    <g transform="rotate(-90,8,8)" fill="#9a9996">
        <path d="m 15 4.5 c 0 1.933594 -1.566406 3.5 -3.5 3.5 s -3.5 -1.566406 -3.5 -3.5 s 1.566406 -3.5 3.5 -3.5 s 3.5 1.566406 3.5 3.5 z m 0 0"/>
        <path d="m 8 11.5 c 0 1.933594 -1.566406 3.5 -3.5 3.5 s -3.5 -1.566406 -3.5 -3.5 s 1.566406 -3.5 3.5 -3.5 s 3.5 1.566406 3.5 3.5 z m 0 0"/>
        <path d="m 11.5 8 c -1.933594 0 -3.5 1.566406 -3.5 3.5 s 1.566406 3.5 3.5 3.5 s 3.5 -1.566406 3.5 -3.5 s -1.566406 -3.5 -3.5 -3.5 z m 0 1 c 1.378906 0 2.5 1.121094 2.5 2.5 s -1.121094 2.5 -2.5 2.5 s -2.5 -1.121094 -2.5 -2.5 s 1.121094 -2.5 2.5 -2.5 z m 0 0"/>
        <path d="m 4.5 1 c -1.933594 0 -3.5 1.566406 -3.5 3.5 s 1.566406 3.5 3.5 3.5 s 3.5 -1.566406 3.5 -3.5 s -1.566406 -3.5 -3.5 -3.5 z m 0 1 c 1.378906 0 2.5 1.121094 2.5 2.5 s -1.121094 2.5 -2.5 2.5 s -2.5 -1.121094 -2.5 -2.5 s 1.121094 -2.5 2.5 -2.5 z m 0 0"/>
    </g>
</svg>
