<svg xmlns="http://www.w3.org/2000/svg" width="16" height="16">
    <g color="#000" fill="#bebebe">
        <path style="line-height:normal;font-variant-ligatures:normal;font-variant-position:normal;font-variant-caps:normal;font-variant-numeric:normal;font-variant-alternates:normal;font-feature-settings:normal;text-indent:0;text-align:start;text-decoration-line:none;text-decoration-style:solid;text-decoration-color:#000;text-transform:none;text-orientation:mixed;white-space:normal;shape-padding:0;isolation:auto;mix-blend-mode:normal;solid-color:#000;solid-opacity:1" d="M4 .5A3.508 3.508 0 00.5 4C.5 5.927 2.073 7.5 4 7.5S7.5 5.927 7.5 4 5.927.5 4 .5zm8 8A3.508 3.508 0 008.5 12c0 1.927 1.573 3.5 3.5 3.5s3.5-1.573 3.5-3.5-1.573-3.5-3.5-3.5z" font-weight="400" font-family="sans-serif" overflow="visible" opacity=".5" fill="#2e3436"/>
        <path style="isolation:auto;mix-blend-mode:normal;solid-color:#000;solid-opacity:1" d="M4 0a4 4 0 100 8 4 4 0 000-8zm4 4a4 4 0 108 0 4 4 0 00-8 0zm4 4a4 4 0 100 8 4 4 0 000-8zm-4 4a4 4 0 10-8 0 4 4 0 008 0zM4 2a2 2 0 012 2 2 2 0 01-2 2 2 2 0 01-2-2 2 2 0 012-2zm8 0a2 2 0 012 2 2 2 0 01-2 2 2 2 0 01-2-2 2 2 0 012-2zm-8 8a2 2 0 012 2 2 2 0 01-2 2 2 2 0 01-2-2 2 2 0 012-2zm8 0a2 2 0 012 2 2 2 0 01-2 2 2 2 0 01-2-2 2 2 0 012-2z" overflow="visible" fill="#3d3846"/>
        <path d="M4 2a2 2 0 012 2 2 2 0 01-2 2 2 2 0 01-2-2 2 2 0 012-2zm8 8a2 2 0 012 2 2 2 0 01-2 2 2 2 0 01-2-2 2 2 0 012-2z" opacity=".5" fill="#3d3846"/>
    </g>
</svg>
