<?xml version="1.0" encoding="UTF-8" standalone="no"?>
<!--
  This file is part of GNOME Reversi, also known as Iagno.

  Copyright 2011 Masuichi Ito

  GNOME Reversi is free software: you can redistribute it and/or modify
  it under the terms of the GNU General Public License as published by
  the Free Software Foundation, either version 3 of the License, or
  (at your option) any later version.

  GNOME Reversi is distributed in the hope that it will be useful,
  but WITHOUT ANY WARRANTY; without even the implied warranty of
  MERCHANTABILITY or FITNESS FOR A PARTICULAR PURPOSE.  See the
  GNU General Public License for more details.

  You should have received a copy of the GNU General Public License
  along with GNOME Reversi.  If not, see <https://www.gnu.org/licenses/>.
-->
<!-- Created with Inkscape (https://www.inkscape.org/) -->
<svg xmlns:inkscape="http://www.inkscape.org/namespaces/inkscape" xmlns:rdf="http://www.w3.org/1999/02/22-rdf-syntax-ns#" xmlns="http://www.w3.org/2000/svg" sodipodi:docname="black_and_white.svg" xmlns:sodipodi="http://sodipodi.sourceforge.net/DTD/sodipodi-0.dtd" height="256" sodipodi:version="0.32" width="512" version="1.0" inkscape:output_extension="org.inkscape.output.svg.inkscape" xmlns:cc="https://creativecommons.org/ns#" xmlns:xlink="http://www.w3.org/1999/xlink" inkscape:version="0.48.5 r10040" xmlns:dc="https://purl.org/dc/elements/1.1/">
 <defs>
  <linearGradient id="linearGradient3032" y2="1.836" gradientUnits="userSpaceOnUse" x2="9.9954" gradientTransform="matrix(3.7536097,0,0,3.2312663,-6.5153492,-7.537471)" y1="21.024" x1="12.531" inkscape:collect="always">
   <stop style="stop-color:#2e3436;" offset="0"/>
   <stop style="stop-color:#888a85;" offset="1"/>
  </linearGradient>
  <linearGradient id="linearGradient3042" y2="1.836" gradientUnits="userSpaceOnUse" x2="9.9954" gradientTransform="matrix(3.5997954,0,0,3.5997954,562.18204,242.11814)" y1="21.024" x1="12.531" inkscape:collect="always">
   <stop style="stop-color:#888a85;" offset="0"/>
   <stop style="stop-color:#eeeeec;" offset="1"/>
  </linearGradient>
  <linearGradient id="linearGradient3044" y2="18.706" gradientUnits="userSpaceOnUse" x2="16.46" gradientTransform="matrix(3.78173,0,0,3.78173,560.27071,240.20357)" y1="4.0634" x1="4.5508" inkscape:collect="always">
   <stop style="stop-color:#eeeeec;" offset="0"/>
   <stop style="stop-color:#eeeeec;stop-opacity:0;" offset="1"/>
  </linearGradient>
 </defs>
 <sodipodi:namedview bordercolor="#666666" inkscape:pageshadow="2" inkscape:window-y="27" pagecolor="#ffffff" inkscape:window-height="833" inkscape:window-maximized="0" inkscape:zoom="10.264097" inkscape:window-x="0" showgrid="true" borderopacity="1.0" inkscape:current-layer="svg3000" inkscape:cx="167.55471" inkscape:cy="220.28684" inkscape:window-width="1438" inkscape:pageopacity="0.0" inkscape:document-units="px">
  <inkscape:grid enabled="true" visible="true" snapvisiblegridlinesonly="true" type="xygrid" empspacing="5"/>
 </sodipodi:namedview>
 <metadata>
  <rdf:RDF>
   <cc:Work rdf:about="">
    <dc:format>image/svg+xml</dc:format>
    <dc:type rdf:resource="https://purl.org/dc/dcmitype/StillImage"/>
    <dc:title/>
    <dc:date>2006-09-11</dc:date>
    <dc:creator>
     <cc:Agent>
      <dc:title>Masuichi Ito</dc:title>
     </cc:Agent>
    </dc:creator>
    <cc:license rdf:resource="https://www.gnu.org/licenses/gpl-3.0.html"/> <!-- GPLv3+ -->
   </cc:Work>
   <cc:License rdf:about="https://www.gnu.org/licenses/gpl-3.0.html">
    <cc:permits rdf:resource="http://web.resource.org/cc/Reproduction"/>
    <cc:permits rdf:resource="http://web.resource.org/cc/Distribution"/>
    <cc:requires rdf:resource="http://web.resource.org/cc/Notice"/>
    <cc:permits rdf:resource="http://web.resource.org/cc/DerivativeWorks"/>
    <cc:requires rdf:resource="http://web.resource.org/cc/ShareAlike"/>
    <cc:requires rdf:resource="http://web.resource.org/cc/SourceCode"/>
   </cc:License>
  </rdf:RDF>
 </metadata>
 <g id="g1000" transform="matrix(0.7056258,0,0,0.8153927,72.351576,10.187956)">
  <path style="stroke-linejoin:miter;stroke:#2e3436;stroke-linecap:round;stroke-miterlimit:4;stroke-dasharray:none;stroke-width:1.93490958;fill:url(#linearGradient3032);" d="M70.457,26.466c0,17.847-16.807,32.315-37.538,32.315-20.732,0-37.538-14.468-37.538-32.315,0-17.846,16.806-32.314,37.538-32.314,20.731,0,37.538,14.468,37.538,32.314z"/>
 </g>
 <g id="g1010" transform="matrix(0.7356317,0,0,0.7244548,-345.8347,-171.37861)">
  <path style="stroke-linejoin:miter;stroke:#888a85;stroke-linecap:round;stroke-miterlimit:4;stroke-dasharray:none;stroke-width:2.00042057;fill:url(#linearGradient3042);" d="M636,280c0,19.88-16.12,36-36,36s-36-16.12-36-36,16.12-36,36-36,36,16.12,36,36z"/>
  <path style="stroke-linejoin:miter;stroke:url(#linearGradient3044);stroke-linecap:round;stroke-miterlimit:4;stroke-dasharray:none;stroke-width:2.00179124;fill:none;" d="M634,280c0,18.78-15.22,34-34,34s-34-15.22-34-34,15.22-34,34-34,34,15.22,34,34z"/>
 </g>
 <path id="path1020" sodipodi:rx="27" sodipodi:ry="27" style="stroke-opacity:0;stroke-miterlimit:4;fill:#000000;" sodipodi:type="arc" d="M59,32a27,27,0,1,1,-54,0,27,27,0,1,1,54,0z" transform="matrix(1,0,0,0.9923454,64,3.8272934e-2)" sodipodi:cy="32" sodipodi:cx="32"/>
 <path id="path1030" sodipodi:rx="27" sodipodi:ry="27" style="stroke-dashoffset:0;stroke:#000000;stroke-miterlimit:4;stroke-dasharray:none;stroke-width:0.1;fill:#f0f0ff;" sodipodi:type="arc" d="M59,32a27,27,0,1,1,-54,0,27,27,0,1,1,54,0z" transform="matrix(1.0000071,0,0,0.992356,63.999773,3.7932977e-2)" sodipodi:cy="32" sodipodi:cx="32"/>
 <g transform="matrix(0.7113015,0.7057827,-0.7113015,0.7057827,50.246986,-58.391697)">
  <use xlink:href="#path1030" height="256" width="512" y="0" x="0"/>
  <use xlink:href="#g1000" height="256" width="512" y="0" x="0"/>
 </g>
 <g transform="matrix(0.6977108,0.703,-0.7016807,0.707,115.24632,-59.2)">
  <use xlink:href="#g1000" height="256" width="512" y="0" x="0"/>
 </g>
 <g transform="matrix(0.692,0.692,-0.707,0.707,180,-58.8)">
  <use xlink:href="#path1030" transform="translate(-0.5,0)" height="256" width="512" y="0" x="0"/>
  <use xlink:href="#g1000" height="256" width="512" y="0" x="0"/>
 </g>
 <g transform="matrix(0.672,0.672,-0.707,0.707,246,-57.2)">
  <use xlink:href="#path1030" transform="translate(-0.5,0)" height="256" width="512" y="0" x="0"/>
  <use xlink:href="#path1020" height="256" width="512" y="0" x="0"/>
  <use xlink:href="#g1000" transform="translate(0.5,0)" height="256" width="512" y="0" x="0"/>
 </g>
 <g transform="matrix(0.646,0.646,-0.707,0.707,312.5,-55.3)">
  <use xlink:href="#path1030" transform="translate(-0.5,0)" height="256" width="512" y="0" x="0"/>
  <use xlink:href="#path1020" height="256" width="512" y="0" x="0"/>
  <use xlink:href="#g1000" transform="translate(1,0)" height="256" width="512" y="0" x="0"/>
 </g>
 <g transform="matrix(0.612,0.612,-0.707,0.707,380,-52.8)">
  <use xlink:href="#path1030" transform="translate(-1,0)" height="256" width="512" y="0" x="0"/>
  <use xlink:href="#path1020" height="256" width="512" y="0" x="0"/>
  <use xlink:href="#g1000" transform="translate(1.5,0)" height="256" width="512" y="0" x="0"/>
 </g>
 <g transform="matrix(0.572,0.572,-0.707,0.707,447.7,-49.6)">
  <use xlink:href="#path1030" transform="translate(-1,0)" height="256" width="512" y="0" x="0"/>
  <use xlink:href="#path1020" height="256" width="512" y="0" x="0"/>
  <use xlink:href="#g1000" transform="translate(2,0)" height="256" width="512" y="0" x="0"/>
 </g>
 <g transform="matrix(0.525,0.525,-0.707,0.707,4.2,18.3)">
  <use xlink:href="#path1030" transform="translate(-1.5,0)" height="256" width="512" y="0" x="0"/>
  <use xlink:href="#path1020" height="256" width="512" y="0" x="0"/>
  <use xlink:href="#g1000" transform="translate(2.5,0)" height="256" width="512" y="0" x="0"/>
 </g>
 <g transform="matrix(0.473,0.473,-0.707,0.707,73.5,22.8)">
  <use xlink:href="#path1030" transform="translate(-2,0)" height="256" width="512" y="0" x="0"/>
  <use xlink:href="#path1020" height="256" width="512" y="0" x="0"/>
  <use xlink:href="#g1000" transform="translate(3,0)" height="256" width="512" y="0" x="0"/>
 </g>
 <g transform="matrix(0.416,0.416,-0.707,0.707,143,27.8)">
  <use xlink:href="#path1030" transform="translate(-3,0)" height="256" width="512" y="0" x="0"/>
  <use xlink:href="#path1020" height="256" width="512" y="0" x="0"/>
  <use xlink:href="#g1000" transform="translate(4,0)" height="256" width="512" y="0" x="0"/>
 </g>
 <g transform="matrix(0.354,0.354,-0.707,0.707,212.7,33.4)">
  <use xlink:href="#path1030" transform="translate(-4,0)" height="256" width="512" y="0" x="0"/>
  <use xlink:href="#path1020" height="256" width="512" y="0" x="0"/>
  <use xlink:href="#g1000" transform="translate(5,0)" height="256" width="512" y="0" x="0"/>
 </g>
 <g transform="matrix(0.288,0.288,-0.707,0.707,283,39.3)">
  <use xlink:href="#path1030" transform="translate(-4,0)" height="256" width="512" y="0" x="0"/>
  <use xlink:href="#path1020" height="256" width="512" y="0" x="0"/>
  <use xlink:href="#g1000" transform="translate(6,0)" height="256" width="512" y="0" x="0"/>
 </g>
 <g transform="matrix(0.218,0.218,-0.707,0.707,353.7,45.8)">
  <use xlink:href="#path1030" transform="translate(-6,0)" height="256" width="512" y="0" x="0"/>
  <use xlink:href="#path1020" height="256" width="512" y="0" x="0"/>
  <use xlink:href="#g1000" transform="translate(8,0)" height="256" width="512" y="0" x="0"/>
 </g>
 <g transform="matrix(0.147,0.147,-0.707,0.707,424.5,52.5)">
  <use xlink:href="#path1030" transform="translate(-12,0)" height="256" width="512" y="0" x="0"/>
  <use xlink:href="#path1030" transform="translate(-6,0)" height="256" width="512" y="0" x="0"/>
  <use xlink:href="#path1020" height="256" width="512" y="0" x="0"/>
  <use xlink:href="#path1020" transform="translate(6,0)" height="256" width="512" y="0" x="0"/>
  <use xlink:href="#g1000" transform="translate(12,0)" height="256" width="512" y="0" x="0"/>
 </g>
 <g transform="matrix(7.4e-2,7.4e-2,-0.707,0.707,495.5,59.3)">
  <use xlink:href="#path1030" transform="translate(-24,0)" height="256" width="512" y="0" x="0"/>
  <use xlink:href="#path1030" transform="translate(-12,0)" height="256" width="512" y="0" x="0"/>
  <use xlink:href="#path1020" height="256" width="512" y="0" x="0"/>
  <use xlink:href="#path1020" transform="translate(12,0)" height="256" width="512" y="0" x="0"/>
  <use xlink:href="#g1000" transform="translate(24,0)" height="256" width="512" y="0" x="0"/>
 </g>
 <g transform="translate(0,119)">
  <rect style="stroke-dashoffset:0;stroke:black;stroke-dasharray:none;stroke-miterlimit:4;stroke-width:0.05000006;fill:#1a1a1a;" inkscape:transform-center-x="21.636364" inkscape:transform-center-y="-28.545455" transform="matrix(0.707107,0.707107,-0.707107,0.707107,0,0)" height="54" width="2.8" y="-27" x="45.5"/>
  <rect style="stroke-dashoffset:0;stroke:black;stroke-dasharray:none;stroke-miterlimit:4;stroke-width:0.05;fill:#f0f0ff;" inkscape:transform-center-x="21.636364" inkscape:transform-center-y="-28.545455" transform="matrix(0.707107,0.707107,-0.707107,0.707107,0,0)" height="54" width="2.8" y="-27" x="43"/>
 </g>
 <g transform="matrix(7.4e-2,7.4e-2,-0.707,0.707,111.5,123.3)">
  <use xlink:href="#path1020" transform="translate(24,0)" height="256" width="512" y="0" x="0"/>
  <use xlink:href="#path1020" transform="translate(12,0)" height="256" width="512" y="0" x="0"/>
  <use xlink:href="#path1030" height="256" width="512" y="0" x="0"/>
  <use xlink:href="#path1030" transform="translate(-12,0)" height="256" width="512" y="0" x="0"/>
  <use xlink:href="#g1010" transform="translate(-24,0)" height="256" width="512" y="0" x="0"/>
 </g>
 <g transform="matrix(0.147,0.147,-0.707,0.707,168.5,116.5)">
  <use xlink:href="#path1020" transform="translate(12,0)" height="256" width="512" y="0" x="0"/>
  <use xlink:href="#path1020" transform="translate(6,0)" height="256" width="512" y="0" x="0"/>
  <use xlink:href="#path1030" height="256" width="512" y="0" x="0"/>
  <use xlink:href="#path1030" transform="translate(-6,0)" height="256" width="512" y="0" x="0"/>
  <use xlink:href="#g1010" transform="translate(-12,0)" height="256" width="512" y="0" x="0"/>
 </g>
 <g transform="matrix(0.218,0.218,-0.707,0.707,225.7,109.8)">
  <use xlink:href="#path1020" transform="translate(8,0)" height="256" width="512" y="0" x="0"/>
  <use xlink:href="#path1030" height="256" width="512" y="0" x="0"/>
  <use xlink:href="#g1010" transform="translate(-7,0)" height="256" width="512" y="0" x="0"/>
 </g>
 <g transform="matrix(0.288,0.288,-0.707,0.707,283,103.3)">
  <use xlink:href="#path1020" transform="translate(6,0)" height="256" width="512" y="0" x="0"/>
  <use xlink:href="#path1030" height="256" width="512" y="0" x="0"/>
  <use xlink:href="#g1010" transform="translate(-5,0)" height="256" width="512" y="0" x="0"/>
 </g>
 <g transform="matrix(0.354,0.354,-0.707,0.707,340.7,97.4)">
  <use xlink:href="#path1020" transform="translate(5,0)" height="256" width="512" y="0" x="0"/>
  <use xlink:href="#path1030" height="256" width="512" y="0" x="0"/>
  <use xlink:href="#g1010" transform="translate(-4,0)" height="256" width="512" y="0" x="0"/>
 </g>
 <g transform="matrix(0.416,0.416,-0.707,0.707,399,91.8)">
  <use xlink:href="#path1020" transform="translate(4,0)" height="256" width="512" y="0" x="0"/>
  <use xlink:href="#path1030" height="256" width="512" y="0" x="0"/>
  <use xlink:href="#g1010" transform="translate(-3,0)" height="256" width="512" y="0" x="0"/>
 </g>
 <g transform="matrix(0.473,0.473,-0.707,0.707,457.3,86.8)">
  <use xlink:href="#path1020" transform="translate(3,0)" height="256" width="512" y="0" x="0"/>
  <use xlink:href="#path1030" height="256" width="512" y="0" x="0"/>
  <use xlink:href="#g1010" transform="translate(-2,0)" height="256" width="512" y="0" x="0"/>
 </g>
 <g transform="matrix(0.525,0.525,-0.707,0.707,4.2,146.3)">
  <use xlink:href="#path1020" transform="translate(2.5,0)" height="256" width="512" y="0" x="0"/>
  <use xlink:href="#path1030" height="256" width="512" y="0" x="0"/>
  <use xlink:href="#g1010" transform="translate(-1.5,0)" height="256" width="512" y="0" x="0"/>
 </g>
 <g transform="matrix(0.572,0.572,-0.707,0.707,63.7,142.4)">
  <use xlink:href="#path1020" transform="translate(2,0)" height="256" width="512" y="0" x="0"/>
  <use xlink:href="#path1030" height="256" width="512" y="0" x="0"/>
  <use xlink:href="#g1010" transform="translate(-1.5,0)" height="256" width="512" y="0" x="0"/>
 </g>
 <g transform="matrix(0.612,0.612,-0.707,0.707,124,139.2)">
  <use xlink:href="#path1020" transform="translate(1.5,0)" height="256" width="512" y="0" x="0"/>
  <use xlink:href="#path1030" height="256" width="512" y="0" x="0"/>
  <use xlink:href="#g1010" transform="translate(-1,0)" height="256" width="512" y="0" x="0"/>
 </g>
 <g transform="matrix(0.646,0.646,-0.707,0.707,184.5,136.7)">
  <use xlink:href="#path1020" transform="translate(1.5,0)" height="256" width="512" y="0" x="0"/>
  <use xlink:href="#path1030" height="256" width="512" y="0" x="0"/>
  <use xlink:href="#g1010" transform="translate(-1,0)" height="256" width="512" y="0" x="0"/>
 </g>
 <g transform="matrix(0.672,0.672,-0.707,0.707,246,134.8)">
  <use xlink:href="#path1020" transform="translate(1.5,0)" height="256" width="512" y="0" x="0"/>
  <use xlink:href="#path1030" height="256" width="512" y="0" x="0"/>
  <use xlink:href="#g1010" transform="translate(-0.5,0)" height="256" width="512" y="0" x="0"/>
 </g>
 <g transform="matrix(0.692,0.692,-0.707,0.707,308,133.2)">
  <use xlink:href="#path1020" transform="translate(1,0)" height="256" width="512" y="0" x="0"/>
  <use xlink:href="#path1030" height="256" width="512" y="0" x="0"/>
  <use xlink:href="#g1010" transform="translate(-0.5,0)" height="256" width="512" y="0" x="0"/>
 </g>
 <g transform="matrix(0.698525,0.703,-0.7024995,0.707,370.81451,132.8)">
  <use xlink:href="#path1020" transform="translate(1,0)" height="256" width="512" y="0" x="0"/>
  <use xlink:href="#path1030" transform="translate(0.5,0)" height="256" width="512" y="0" x="0"/>
  <use xlink:href="#g1010" height="256" width="512" y="0" x="0"/>
 </g>
 <g transform="matrix(0.707,0.707,-0.707,0.707,434.5,133.5)">
  <use xlink:href="#path1020" transform="translate(0.5,0)" height="256" width="512" y="0" x="0"/>
  <use xlink:href="#g1010" height="256" width="512" y="0" x="0"/>
 </g>
</svg>
