<?xml version="1.0" encoding="UTF-8" standalone="no"?>
<!--
  This file is part of GNOME Reversi, also known as Iagno.

  Copyright 2015-2016 Arnaud Bonatti

  GNOME Reversi is free software: you can redistribute it and/or modify
  it under the terms of the GNU General Public License as published by
  the Free Software Foundation, either version 3 of the License, or
  (at your option) any later version.

  GNOME Reversi is distributed in the hope that it will be useful,
  but WITHOUT ANY WARRANTY; without even the implied warranty of
  MERCHANTABILITY or FITNESS FOR A PARTICULAR PURPOSE.  See the
  GNU General Public License for more details.

  You should have received a copy of the GNU General Public License
  along with GNOME Reversi.  If not, see <https://www.gnu.org/licenses/>.
-->
<svg
   xmlns:dc="https://purl.org/dc/elements/1.1/"
   xmlns:cc="https://creativecommons.org/ns#"
   xmlns:rdf="https://www.w3.org/1999/02/22-rdf-syntax-ns#"
   xmlns:svg="https://www.w3.org/2000/svg"
   xmlns="http://www.w3.org/2000/svg"
   id="svg2"
   version="1.0"
   width="16" height="8">

  <!-- line one, first tile is empty -->
  <circle r="0.8"   cy="1"  cx="3"  style="fill:#3f3f3f" />
  <circle r="0"     cy="1"  cx="3"  style="fill:#e0e0e0" />

  <circle r="0.8"   cy="1"  cx="5"  style="fill:#3f3f3f" />
  <circle r="0.02"  cy="1"  cx="5"  style="fill:#e0e0e0" />

  <circle r="0.8"   cy="1"  cx="7"  style="fill:#3f3f3f" />
  <circle r="0.04"  cy="1"  cx="7"  style="fill:#e0e0e0" />

  <circle r="0.8"   cy="1"  cx="9"  style="fill:#3f3f3f" />
  <circle r="0.06"  cy="1"  cx="9"  style="fill:#e0e0e0" />

  <circle r="0.8"   cy="1"  cx="11" style="fill:#3f3f3f" />
  <circle r="0.08"  cy="1"  cx="11" style="fill:#e0e0e0" />

  <circle r="0.8"   cy="1"  cx="13" style="fill:#3f3f3f" />
  <circle r="0.10"  cy="1"  cx="13" style="fill:#e0e0e0" />

  <circle r="0.8"   cy="1"  cx="15" style="fill:#3f3f3f" />
  <circle r="0.12"  cy="1"  cx="15" style="fill:#e0e0e0" />

  <!-- line 2 -->
  <circle r="0.8"   cy="3"  cx="1"  style="fill:#3f3f3f" />
  <circle r="0.14"  cy="3"  cx="1"  style="fill:#e0e0e0" />

  <circle r="0.8"   cy="3"  cx="3"  style="fill:#3f3f3f" />
  <circle r="0.16"  cy="3"  cx="3"  style="fill:#e0e0e0" />

  <circle r="0.8"   cy="3"  cx="5"  style="fill:#3f3f3f" />
  <circle r="0.18"  cy="3"  cx="5"  style="fill:#e0e0e0" />

  <circle r="0.8"   cy="3"  cx="7"  style="fill:#3f3f3f" />
  <circle r="0.2"   cy="3"  cx="7"  style="fill:#e0e0e0" />

  <circle r="0.8"   cy="3"  cx="9"  style="fill:#3f3f3f" />
  <circle r="0.22"  cy="3"  cx="9"  style="fill:#e0e0e0" />

  <circle r="0.8"   cy="3"  cx="11" style="fill:#3f3f3f" />
  <circle r="0.24"  cy="3"  cx="11" style="fill:#e0e0e0" />

  <circle r="0.8"   cy="3"  cx="13" style="fill:#3f3f3f" />
  <circle r="0.26"  cy="3"  cx="13" style="fill:#e0e0e0" />

  <circle r="0.8"   cy="3"  cx="15" style="fill:#3f3f3f" />
  <circle r="0.28"  cy="3"  cx="15" style="fill:#e0e0e0" />

  <!-- line 3 -->
  <circle r="0.8"   cy="5"  cx="1"  style="fill:#3f3f3f" />
  <circle r="0.3"   cy="5"  cx="1"  style="fill:#e0e0e0" />

  <circle r="0.8"   cy="5"  cx="3"  style="fill:#3f3f3f" />
  <circle r="0.32"  cy="5"  cx="3"  style="fill:#e0e0e0" />

  <circle r="0.8"   cy="5"  cx="5"  style="fill:#3f3f3f" />
  <circle r="0.34"  cy="5"  cx="5"  style="fill:#e0e0e0" />

  <circle r="0.8"   cy="5"  cx="7"  style="fill:#3f3f3f" />
  <circle r="0.36"  cy="5"  cx="7"  style="fill:#e0e0e0" />

  <circle r="0.8"   cy="5"  cx="9"  style="fill:#3f3f3f" />
  <circle r="0.38"  cy="5"  cx="9"  style="fill:#e0e0e0" />

  <circle r="0.8"   cy="5"  cx="11" style="fill:#3f3f3f" />
  <circle r="0.4"   cy="5"  cx="11" style="fill:#e0e0e0" />

  <circle r="0.8"   cy="5"  cx="13" style="fill:#3f3f3f" />
  <circle r="0.42"  cy="5"  cx="13" style="fill:#e0e0e0" />

  <circle r="0.8"   cy="5"  cx="15" style="fill:#3f3f3f" />
  <circle r="0.44"  cy="5"  cx="15" style="fill:#e0e0e0" />

  <!-- line 4 -->
  <circle r="0.8"   cy="7"  cx="1"  style="fill:#3f3f3f" />
  <circle r="0.46"  cy="7"  cx="1"  style="fill:#e0e0e0" />

  <circle r="0.8"   cy="7"  cx="3"  style="fill:#3f3f3f" />
  <circle r="0.48"  cy="7"  cx="3"  style="fill:#e0e0e0" />

  <circle r="0.8"   cy="7"  cx="5"  style="fill:#3f3f3f" />
  <circle r="0.5"   cy="7"  cx="5"  style="fill:#e0e0e0" />

  <circle r="0.8"   cy="7"  cx="7"  style="fill:#3f3f3f" />
  <circle r="0.52"  cy="7"  cx="7"  style="fill:#e0e0e0" />

  <circle r="0.8"   cy="7"  cx="9"  style="fill:#3f3f3f" />
  <circle r="0.54"  cy="7"  cx="9"  style="fill:#e0e0e0" />

  <circle r="0.8"   cy="7"  cx="11" style="fill:#3f3f3f" />
  <circle r="0.56"  cy="7"  cx="11" style="fill:#e0e0e0" />

  <circle r="0.8"   cy="7"  cx="13" style="fill:#3f3f3f" />
  <circle r="0.58"  cy="7"  cx="13" style="fill:#e0e0e0" />

  <circle r="0.8"   cy="7"  cx="15" style="fill:#3f3f3f" />
  <circle r="0.6"   cy="7"  cx="15" style="fill:#e0e0e0" />
</svg>
