<?xml version="1.0" encoding="UTF-8" standalone="no"?>
<!--
  This file is part of GNOME Reversi, also known as Iagno.

  Copyright 2011 Masuichi Ito

  GNOME Reversi is free software: you can redistribute it and/or modify
  it under the terms of the GNU General Public License as published by
  the Free Software Foundation, either version 3 of the License, or
  (at your option) any later version.

  GNOME Reversi is distributed in the hope that it will be useful,
  but WITHOUT ANY WARRANTY; without even the implied warranty of
  MERCHANTABILITY or FITNESS FOR A PARTICULAR PURPOSE.  See the
  GNU General Public License for more details.

  You should have received a copy of the GNU General Public License
  along with GNOME Reversi.  If not, see <https://www.gnu.org/licenses/>.
-->
<!-- Created with Inkscape (https://www.inkscape.org/) -->
<svg xmlns:inkscape="http://www.inkscape.org/namespaces/inkscape" xmlns:rdf="http://www.w3.org/1999/02/22-rdf-syntax-ns#" xmlns="http://www.w3.org/2000/svg" sodipodi:docname="sun_and_star-old.svg" xmlns:sodipodi="http://sodipodi.sourceforge.net/DTD/sodipodi-0.dtd" height="256" sodipodi:version="0.32" width="512" version="1.0" xmlns:cc="https://creativecommons.org/ns#" xmlns:xlink="http://www.w3.org/1999/xlink" inkscape:version="0.48.5 r10040" xmlns:dc="https://purl.org/dc/elements/1.1/">
 <defs>
  <clipPath id="clipPath3843-0" clipPathUnits="userSpaceOnUse">
   <path sodipodi:rx="79.5" sodipodi:ry="79.5" style="stroke-linejoin:miter;enable-background:accumulate;stroke-dashoffset:0;stroke:#000000;stroke-linecap:butt;stroke-miterlimit:4;stroke-dasharray:none;stroke-width:0.67948717;fill:none;" sodipodi:type="arc" d="m-107,103.5a79.5,79.5,0,1,1,-159,0,79.5,79.5,0,1,1,159,0z" transform="matrix(1.4716981,0,0,1.4716981,403.4717,15.67924)" sodipodi:cy="103.5" sodipodi:cx="-186.5"/>
  </clipPath>
  <radialGradient id="radialGradient4731" gradientUnits="userSpaceOnUse" cy="30.086" cx="-216.35" gradientTransform="matrix(2.1078717,0,0,1.6491265,239.69175,-19.529488)" r="79.5" inkscape:collect="always">
   <stop style="stop-color:#ffffff;" offset="0"/>
   <stop style="stop-color:#d3d7cf;" offset="1"/>
  </radialGradient>
  <linearGradient id="linearGradient4733" y2="37.037" gradientUnits="userSpaceOnUse" x2="-204.31" y1="169.96" x1="-168.69" inkscape:collect="always">
   <stop style="stop-color:#2e3436;" offset="0"/>
   <stop style="stop-color:#d3d7cf;" offset="1"/>
  </linearGradient>
  <filter id="filter5723-0" color-interpolation-filters="sRGB" inkscape:collect="always">
   <feGaussianBlur stdDeviation="2.4336735" inkscape:collect="always"/>
  </filter>
  <radialGradient id="radialGradient4735" xlink:href="#linearGradient5734-1" gradientUnits="userSpaceOnUse" cy="234.36" cx="-186.5" gradientTransform="matrix(1.6217398,0,0,0.83173783,431.45448,98.561646)" r="76.5" inkscape:collect="always"/>
  <linearGradient id="linearGradient5734-1" inkscape:collect="always">
   <stop style="stop-color:#ffffff;" offset="0"/>
   <stop style="stop-color:#ffffff;stop-opacity:0;" offset="1"/>
  </linearGradient>
  <radialGradient id="radialGradient4737" xlink:href="#linearGradient5734-1" gradientUnits="userSpaceOnUse" cy="234.36" cx="-186.5" gradientTransform="matrix(1.1019514,0,0,-0.5651552,19.01394,151.21372)" r="76.5" inkscape:collect="always"/>
  <filter id="filter5750-9" color-interpolation-filters="sRGB" inkscape:collect="always">
   <feGaussianBlur stdDeviation="1.4762038" inkscape:collect="always"/>
  </filter>
  <filter id="filter5186-0" color-interpolation-filters="sRGB" inkscape:collect="always">
   <feGaussianBlur stdDeviation="0.49217461" inkscape:collect="always"/>
  </filter>
  <clipPath id="clipPath5084-4" clipPathUnits="userSpaceOnUse">
   <path style="enable-background:new;color:#bebebe;stroke:#000000;stroke-width:1.78124988;fill:none;" sodipodi:type="star" sodipodi:sides="10" inkscape:transform-center-x="-0.43730529" sodipodi:r1="24.915482" sodipodi:r2="17.853678" inkscape:transform-center-y="-2.1131981" sodipodi:arg1="1.0471976" sodipodi:arg2="1.3613569" transform="matrix(1.5055475,-0.40341024,0.40341024,1.5055475,2174.0736,-924.6638)" inkscape:randomized="0" sodipodi:cy="286" sodipodi:cx="-1462.125" inkscape:rounded="0" inkscape:flatsided="false" d="m-1449.7,307.58-8.7457-4.1139-6.3164,7.3155-4.6573-8.4688-9.41,2.2057,1.21-9.589-8.9093-3.7466,6.6151-7.0464-5.0055-8.2678,9.4935-1.8124,0.8102-9.631,8.7457,4.1139,6.3164-7.3155,4.6573,8.4688,9.41-2.2057-1.21,9.589,8.9093,3.7466-6.6151,7.0464,5.0055,8.2678-9.4935,1.8124z"/>
  </clipPath>
  <radialGradient id="radialGradient4739" gradientUnits="userSpaceOnUse" cy="272.05" cx="-1465.7" gradientTransform="matrix(3.2994343,0.88408072,-0.5130607,1.9147686,3510.0925,1045.5977)" r="24.371" inkscape:collect="always">
   <stop style="stop-color:#ffffff;" offset="0"/>
   <stop style="stop-color:#edd400;" offset="0.5"/>
   <stop style="stop-color:#fce94f;" offset="1"/>
  </radialGradient>
  <filter id="filter5088-5" color-interpolation-filters="sRGB" inkscape:collect="always">
   <feGaussianBlur stdDeviation="0.24608731" inkscape:collect="always"/>
  </filter>
  <radialGradient id="radialGradient4741" gradientUnits="userSpaceOnUse" cy="286" cx="-1462.1" gradientTransform="matrix(2.8900635,1.668579,-0.51633705,0.89432201,2911.1814,2469.8949)" r="23.29" inkscape:collect="always">
   <stop style="stop-color:#ffffff;" offset="0"/>
   <stop style="stop-color:#ffffff;stop-opacity:0;" offset="1"/>
  </radialGradient>
  <radialGradient id="radialGradient4743" gradientUnits="userSpaceOnUse" cy="255.47" cx="-1479.2" gradientTransform="matrix(1.9214543,-1.3190971e-7,1.20377e-7,1.7534638,1362.9748,-192.48419)" r="35.051" inkscape:collect="always">
   <stop style="stop-color:#ffffff;" offset="0"/>
   <stop style="stop-color:#ffffff;" offset="0.31558"/>
   <stop style="stop-color:#fce94f;" offset="0.78304"/>
   <stop style="stop-color:#dbc400;" offset="1"/>
  </radialGradient>
  <clipPath id="clipPath3843-4-4" clipPathUnits="userSpaceOnUse">
   <path sodipodi:rx="79.5" sodipodi:ry="79.5" style="stroke-linejoin:miter;enable-background:accumulate;stroke-dashoffset:0;stroke:#000000;stroke-linecap:butt;stroke-miterlimit:4;stroke-dasharray:none;stroke-width:0.67948717;fill:none;" sodipodi:type="arc" d="m-107,103.5a79.5,79.5,0,1,1,-159,0,79.5,79.5,0,1,1,159,0z" transform="matrix(1.4716981,0,0,1.4716981,403.4717,15.67924)" sodipodi:cy="103.5" sodipodi:cx="-186.5"/>
  </clipPath>
  <radialGradient id="radialGradient6380" gradientUnits="userSpaceOnUse" cy="28.875" cx="-232.88" gradientTransform="matrix(1.6875,0,0,1.6875,160.10157,-19.851561)" r="79.5" inkscape:collect="always">
   <stop style="stop-color:#888a85;" offset="0"/>
   <stop style="stop-color:#2e3436;" offset="1"/>
  </radialGradient>
  <filter id="filter5723-5-5" color-interpolation-filters="sRGB" inkscape:collect="always">
   <feGaussianBlur stdDeviation="2.4336735" inkscape:collect="always"/>
  </filter>
  <filter id="filter5750-6-6" color-interpolation-filters="sRGB" inkscape:collect="always">
   <feGaussianBlur stdDeviation="1.4762038" inkscape:collect="always"/>
  </filter>
  <filter id="filter5422-7" color-interpolation-filters="sRGB" inkscape:collect="always">
   <feGaussianBlur stdDeviation="0.68434648" inkscape:collect="always"/>
  </filter>
  <clipPath id="clipPath5380-6" clipPathUnits="userSpaceOnUse">
   <path style="enable-background:new;color:#bebebe;stroke:#000000;stroke-width:1.78124988;fill:none;" sodipodi:type="star" sodipodi:sides="5" inkscape:transform-center-x="-1.9529575" sodipodi:r1="24.41823" sodipodi:r2="11.67305" inkscape:transform-center-y="0.39490872" sodipodi:arg1="1.3089969" sodipodi:arg2="1.9373154" transform="matrix(1.4108167,0,0,1.4108167,2940.806,31.102438)" inkscape:randomized="0" sodipodi:cy="46" sodipodi:cx="-1942" inkscape:rounded="0" inkscape:flatsided="false" d="m-1935.7,69.586-10.503-12.688-16.296,2.4014,8.8218-13.91-7.3194-14.756,15.955,4.0916,11.772-11.521,1.0391,16.439,14.595,7.6355-15.313,6.0681z"/>
  </clipPath>
  <radialGradient id="radialGradient6386" gradientUnits="userSpaceOnUse" cy="26.981" cx="-1938.7" gradientTransform="matrix(-3.5386499,0.94817644,-0.50227764,-1.8745296,-8788.9152,1915.2169)" r="23.495" inkscape:collect="always">
   <stop style="stop-color:#ffffff;" offset="0"/>
   <stop style="stop-color:#edd400;" offset="0.38784"/>
   <stop style="stop-color:#c4a000;" offset="0.66145"/>
   <stop style="stop-color:#edd400;" offset="1"/>
  </radialGradient>
  <radialGradient id="radialGradient6388" gradientUnits="userSpaceOnUse" cy="42.331" cx="-1940.9" gradientTransform="matrix(1.3796012,-0.36966304,0.29513678,1.1014655,723.12325,-721.97079)" r="22.432" inkscape:collect="always">
   <stop style="stop-color:#ffffff;" offset="0"/>
   <stop style="stop-color:#ffffff;" offset="0.31558"/>
   <stop style="stop-color:#fce94f;" offset="0.78304"/>
   <stop style="stop-color:#dbc400;" offset="1"/>
  </radialGradient>
  <filter id="filter5396-6" color-interpolation-filters="sRGB" inkscape:collect="always">
   <feGaussianBlur stdDeviation="0.22811549" inkscape:collect="always"/>
  </filter>
 </defs>
 <sodipodi:namedview bordercolor="#666666" inkscape:pageshadow="2" inkscape:window-y="27" pagecolor="#ffffff" inkscape:window-height="833" inkscape:window-maximized="0" inkscape:zoom="7.2578124" inkscape:window-x="0" showgrid="true" borderopacity="1.0" inkscape:current-layer="svg3000" inkscape:cx="440.55642" inkscape:cy="173.46282" inkscape:window-width="1438" inkscape:pageopacity="0.0" inkscape:document-units="px"/>
 <metadata>
  <rdf:RDF>
   <cc:Work rdf:about="">
    <dc:format>image/svg+xml</dc:format>
    <dc:type rdf:resource="https://purl.org/dc/dcmitype/StillImage"/>
    <dc:title/>
    <dc:date>2006-09-11</dc:date>
    <dc:creator>
     <cc:Agent>
      <dc:title>Masuichi Ito</dc:title>
     </cc:Agent>
    </dc:creator>
    <cc:license rdf:resource="https://www.gnu.org/licenses/gpl-3.0.html"/> <!-- GPLv3+ -->
   </cc:Work>
   <cc:License rdf:about="https://www.gnu.org/licenses/gpl-3.0.html">
    <cc:permits rdf:resource="http://web.resource.org/cc/Reproduction"/>
    <cc:permits rdf:resource="http://web.resource.org/cc/Distribution"/>
    <cc:requires rdf:resource="http://web.resource.org/cc/Notice"/>
    <cc:permits rdf:resource="http://web.resource.org/cc/DerivativeWorks"/>
    <cc:requires rdf:resource="http://web.resource.org/cc/ShareAlike"/>
    <cc:requires rdf:resource="http://web.resource.org/cc/SourceCode"/>
   </cc:License>
  </rdf:RDF>
 </metadata>
 <g id="g1000" style="enable-background:new;" transform="matrix(0.23076923,0,0,0.23076922,65.904067,-6.8512919)" clip-path="url(#clipPath3843-4-4)">
  <path sodipodi:rx="79.5" sodipodi:ry="79.5" style="enable-background:accumulate;fill-rule:nonzero;fill:url(#radialGradient6380);" sodipodi:type="arc" d="m-107,103.5c0,43.907-35.593,79.5-79.5,79.5s-79.5-35.593-79.5-79.5,35.593-79.5,79.5-79.5,79.5,35.593,79.5,79.5z" transform="matrix(1.4716981,0,0,1.4716981,403.4717,15.679244)" sodipodi:cy="103.5" sodipodi:cx="-186.5"/>
  <path sodipodi:rx="79.5" sodipodi:ry="79.5" style="stroke-linejoin:miter;enable-background:accumulate;stroke-dashoffset:0;filter:url(#filter5723-5-5);stroke:#000000;stroke-linecap:butt;stroke-miterlimit:4;stroke-dasharray:none;stroke-width:3.3125;fill:none;" sodipodi:type="arc" d="m-107,103.5c0,43.907-35.593,79.5-79.5,79.5s-79.5-35.593-79.5-79.5,35.593-79.5,79.5-79.5,79.5,35.593,79.5,79.5z" clip-path="none" transform="matrix(1.4716981,0,0,1.4716981,403.4717,15.679244)" sodipodi:cy="103.5" sodipodi:cx="-186.5"/>
  <path style="opacity:0.3;enable-background:accumulate;fill-rule:nonzero;fill:url(#radialGradient6382);" inkscape:connector-curvature="0" d="m16.461,165.1c-0.02443,0.96519-0.04592,1.9264-0.04592,2.8974,0,62.147,50.438,112.58,112.58,112.58,62.147,0,112.58-50.438,112.58-112.58,0-0.97104-0.0215-1.9322-0.0459-2.8974-1.58,60.77-51.38,109.6-112.53,109.6-61.145,0-110.95-48.83-112.54-109.6z"/>
  <path inkscape:connector-curvature="0" style="opacity:0.484375;enable-background:accumulate;fill-rule:nonzero;filter:url(#filter5750-6-6);fill:url(#radialGradient6384);" transform="matrix(1.4716981,0,0,1.4716981,403.4717,15.679244)" d="m-262.97,106c-0.0166-0.65583-0.0312-1.3089-0.0312-1.9688,0-42.228,34.272-76.5,76.5-76.5s76.5,34.272,76.5,76.5c0,0.65981-0.0146,1.3129-0.0312,1.9688-1.0804-41.288-34.921-74.469-76.469-74.469-41.547,0.00001-75.388,33.181-76.469,74.469z"/>
  <g style="enable-background:new;" transform="matrix(2.4375001,0,0,2.4375001,-360.93752,-66.000021)">
   <path style="enable-background:new;fill-rule:nonzero;color:#bebebe;filter:url(#filter5422-7);fill:#000000;" sodipodi:type="star" sodipodi:sides="5" inkscape:transform-center-x="-1.9529575" sodipodi:r1="24.41823" sodipodi:r2="11.67305" inkscape:transform-center-y="0.39490872" sodipodi:arg1="1.3089969" sodipodi:arg2="1.9373154" transform="matrix(1.4108167,0,0,1.4108167,2940.806,32.102438)" inkscape:randomized="0" sodipodi:cy="46" sodipodi:cx="-1942" inkscape:rounded="0" inkscape:flatsided="false" d="m-1935.7,69.586-10.503-12.688-16.296,2.4014,8.8218-13.91-7.3194-14.756,15.955,4.0916,11.772-11.521,1.0391,16.439,14.595,7.6355-15.313,6.0681z"/>
   <g clip-path="url(#clipPath5380-6)">
    <path style="enable-background:new;fill-rule:nonzero;color:#bebebe;stroke:url(#radialGradient6388);stroke-miterlimit:4;stroke-dasharray:none;stroke-width:2.12642789;fill:url(#radialGradient6386);" sodipodi:type="star" sodipodi:sides="5" inkscape:transform-center-x="-1.9529575" sodipodi:r1="24.41823" sodipodi:r2="11.67305" inkscape:transform-center-y="0.39490872" sodipodi:arg1="1.3089969" sodipodi:arg2="1.9373154" transform="matrix(1.4108167,0,0,1.4108167,2940.806,31.102436)" inkscape:randomized="0" sodipodi:cy="46" sodipodi:cx="-1942" inkscape:rounded="0" inkscape:flatsided="false" d="m-1935.7,69.586-10.503-12.688-16.296,2.4014,8.8218-13.91-7.3194-14.756,15.955,4.0916,11.772-11.521,1.0391,16.439,14.595,7.6355-15.313,6.0681z"/>
    <path style="enable-background:new;color:#bebebe;filter:url(#filter5396-6);stroke:#937800;stroke-miterlimit:4;stroke-dasharray:none;stroke-width:0.85057116;fill:none;" sodipodi:type="star" sodipodi:sides="5" inkscape:transform-center-x="-1.9529575" sodipodi:r1="24.41823" sodipodi:r2="11.67305" inkscape:transform-center-y="0.39490872" sodipodi:arg1="1.3089969" sodipodi:arg2="1.9373154" transform="matrix(1.4108167,0,0,1.4108167,2940.806,31.102438)" inkscape:randomized="0" sodipodi:cy="46" sodipodi:cx="-1942" inkscape:rounded="0" inkscape:flatsided="false" d="m-1935.7,69.586-10.503-12.688-16.296,2.4014,8.8218-13.91-7.3194-14.756,15.955,4.0916,11.772-11.521,1.0391,16.439,14.595,7.6355-15.313,6.0681z"/>
   </g>
  </g>
 </g>
 <g id="g1010" style="enable-background:new;" transform="matrix(0.23076923,0,0,0.23076923,66.098921,-6.4615857)" clip-path="url(#clipPath3843-0)">
  <path sodipodi:rx="79.5" sodipodi:ry="79.5" style="enable-background:accumulate;fill-rule:nonzero;fill:url(#radialGradient4731);" sodipodi:type="arc" d="m-107,103.5c0,43.907-35.593,79.5-79.5,79.5s-79.5-35.593-79.5-79.5,35.593-79.5,79.5-79.5,79.5,35.593,79.5,79.5z" transform="matrix(1.4716981,0,0,1.4716981,403.4717,15.679244)" sodipodi:cy="103.5" sodipodi:cx="-186.5"/>
  <path sodipodi:rx="79.5" sodipodi:ry="79.5" style="stroke-linejoin:miter;enable-background:accumulate;stroke-dashoffset:0;filter:url(#filter5723-0);stroke:url(#linearGradient4733);stroke-linecap:butt;stroke-miterlimit:4;stroke-dasharray:none;stroke-width:3.3125;fill:none;" sodipodi:type="arc" d="m-107,103.5c0,43.907-35.593,79.5-79.5,79.5s-79.5-35.593-79.5-79.5,35.593-79.5,79.5-79.5,79.5,35.593,79.5,79.5z" clip-path="none" transform="matrix(1.4716981,0,0,1.4716981,403.4717,15.679244)" sodipodi:cy="103.5" sodipodi:cx="-186.5"/>
  <path style="enable-background:accumulate;fill-rule:nonzero;fill:url(#radialGradient4735);" inkscape:connector-curvature="0" d="m16.461,165.1c-0.02443,0.96519-0.04592,1.9264-0.04592,2.8974,0,62.147,50.438,112.58,112.58,112.58,62.147,0,112.58-50.438,112.58-112.58,0-0.97104-0.0215-1.9322-0.0459-2.8974-1.58,60.77-51.38,109.6-112.53,109.6-61.145,0-110.95-48.83-112.54-109.6z"/>
  <path inkscape:connector-curvature="0" style="enable-background:accumulate;fill-rule:nonzero;filter:url(#filter5750-9);fill:url(#radialGradient4737);" transform="matrix(1.4716981,0,0,1.4716981,403.4717,15.679244)" d="m-262.97,106c-0.0166-0.65583-0.0312-1.3089-0.0312-1.9688,0-42.228,34.272-76.5,76.5-76.5s76.5,34.272,76.5,76.5c0,0.65981-0.0146,1.3129-0.0312,1.9688-1.0804-41.288-34.921-74.469-76.469-74.469-41.547,0.00001-75.388,33.181-76.469,74.469z"/>
  <g style="enable-background:new;" transform="matrix(2.4375001,0,0,2.4375001,82.687501,-66.000031)">
   <path style="opacity:0.3;enable-background:new;fill-rule:nonzero;color:#bebebe;filter:url(#filter5186-0);fill:#000000;" sodipodi:type="star" sodipodi:sides="10" inkscape:transform-center-x="-0.43730529" sodipodi:r1="24.915482" sodipodi:r2="17.853678" inkscape:transform-center-y="-2.1131981" sodipodi:arg1="1.0471976" sodipodi:arg2="1.3613569" transform="matrix(1.5055475,-0.40341024,0.40341024,1.5055475,2104.0736,-923.6638)" inkscape:randomized="0" sodipodi:cy="286" sodipodi:cx="-1462.125" inkscape:rounded="0" inkscape:flatsided="false" d="m-1449.7,307.58-8.7457-4.1139-6.3164,7.3155-4.6573-8.4688-9.41,2.2057,1.21-9.589-8.9093-3.7466,6.6151-7.0464-5.0055-8.2678,9.4935-1.8124,0.8102-9.631,8.7457,4.1139,6.3164-7.3155,4.6573,8.4688,9.41-2.2057-1.21,9.589,8.9093,3.7466-6.6151,7.0464,5.0055,8.2678-9.4935,1.8124z"/>
   <g transform="translate(-70,0)" clip-path="url(#clipPath5084-4)">
    <path style="enable-background:new;fill-rule:nonzero;color:#bebebe;fill:url(#radialGradient4739);" sodipodi:type="star" sodipodi:sides="10" inkscape:transform-center-x="-0.43730529" sodipodi:r1="24.915482" sodipodi:r2="17.853678" inkscape:transform-center-y="-2.1131981" sodipodi:arg1="1.0471976" sodipodi:arg2="1.3613569" transform="matrix(1.5055475,-0.40341024,0.40341024,1.5055475,2174.0736,-924.6638)" inkscape:randomized="0" sodipodi:cy="286" sodipodi:cx="-1462.125" inkscape:rounded="0" inkscape:flatsided="false" d="m-1449.7,307.58-8.7457-4.1139-6.3164,7.3155-4.6573-8.4688-9.41,2.2057,1.21-9.589-8.9093-3.7466,6.6151-7.0464-5.0055-8.2678,9.4935-1.8124,0.8102-9.631,8.7457,4.1139,6.3164-7.3155,4.6573,8.4688,9.41-2.2057-1.21,9.589,8.9093,3.7466-6.6151,7.0464,5.0055,8.2678-9.4935,1.8124z"/>
    <path style="enable-background:new;color:#bebebe;filter:url(#filter5088-5);stroke:#c4a000;stroke-dasharray:none;stroke-miterlimit:4;stroke-width:0.64157778;fill:none;" sodipodi:type="star" sodipodi:sides="10" inkscape:transform-center-x="-0.43730529" sodipodi:r1="24.915482" sodipodi:r2="17.853678" inkscape:transform-center-y="-2.1131981" sodipodi:arg1="1.0471976" sodipodi:arg2="1.3613569" transform="matrix(1.5055475,-0.40341024,0.40341024,1.5055475,2174.0736,-924.6638)" inkscape:randomized="0" sodipodi:cy="286" sodipodi:cx="-1462.125" inkscape:rounded="0" inkscape:flatsided="false" d="m-1449.7,307.58-8.7457-4.1139-6.3164,7.3155-4.6573-8.4688-9.41,2.2057,1.21-9.589-8.9093-3.7466,6.6151-7.0464-5.0055-8.2678,9.4935-1.8124,0.8102-9.631,8.7457,4.1139,6.3164-7.3155,4.6573,8.4688,9.41-2.2057-1.21,9.589,8.9093,3.7466-6.6151,7.0464,5.0055,8.2678-9.4935,1.8124z"/>
   </g>
   <path style="opacity:0.5413223;enable-background:new;color:#bebebe;stroke:url(#radialGradient4741);stroke-miterlimit:4;stroke-dasharray:none;stroke-width:0.64157778;fill:none;" sodipodi:type="inkscape:offset" d="m-1459.7,262.62-5.5313,6.4375a0.80855,0.80855,0,0,1,-0.9687,0.1875l-7.6875-3.5938-0.7188,8.4688a0.80855,0.80855,0,0,1,-0.6562,0.71875l-8.3438,1.5938,4.4063,7.2812a0.80855,0.80855,0,0,1,-0.094,0.96875l-5.8126,6.2188,7.8126,3.2812a0.80855,0.80855,0,0,1,0.5,0.84375l-1.0313,8.4375,8.25-1.9375a0.80855,0.80855,0,0,1,0.9063,0.40625l4.0937,7.4375,5.5313-6.4375a0.80855,0.80855,0,0,1,0.9687,-0.1875l7.6875,3.5938,0.7188-8.4688a0.80855,0.80855,0,0,1,0.6562,-0.71875l8.3438-1.5938-4.4063-7.2812a0.80855,0.80855,0,0,1,0.094,-0.96875l5.8126-6.2188-7.8126-3.2812a0.80855,0.80855,0,0,1,-0.5,-0.84375l1.0313-8.4375-8.25,1.9375a0.80855,0.80855,0,0,1,-0.9063,-0.40625l-4.0937-7.4375z" inkscape:original="M -1459.5312 261.21875 L -1465.8438 268.53125 L -1474.5938 264.4375 L -1475.4062 274.0625 L -1484.875 275.875 L -1479.875 284.125 L -1486.5 291.1875 L -1477.5938 294.9375 L -1478.7812 304.53125 L -1469.375 302.3125 L -1464.7188 310.78125 L -1458.4062 303.46875 L -1449.6562 307.5625 L -1448.8438 297.9375 L -1439.375 296.125 L -1444.375 287.875 L -1437.75 280.8125 L -1446.6562 277.0625 L -1445.4688 267.46875 L -1454.875 269.6875 L -1459.5312 261.21875 z " transform="matrix(1.5055475,-0.40341024,0.40341024,1.5055475,2104.0736,-924.6638)" inkscape:radius="-0.80846995"/>
   <path sodipodi:rx="34.117901" sodipodi:ry="34.117901" style="enable-background:new;color:#bebebe;stroke:url(#radialGradient4743);stroke-width:1.86712968;fill:none;" sodipodi:type="arc" d="m-1427.3,287.1c0,18.843-15.275,34.118-34.118,34.118s-34.118-15.275-34.118-34.118,15.275-34.118,34.118-34.118,34.118,15.275,34.118,34.118z" transform="matrix(0.75990841,0,0,0.75990841,1129.5399,-122.16612)" sodipodi:cy="287.09531" sodipodi:cx="-1461.413"/>
  </g>
 </g>
 <path id="path1020" sodipodi:rx="27" sodipodi:ry="27" style="stroke-opacity:0;stroke-miterlimit:4;fill:black;" sodipodi:type="arc" d="M59,32a27,27,0,1,1,-54,0,27,27,0,1,1,54,0z" transform="translate(64,0)" sodipodi:cy="32" sodipodi:cx="32"/>
 <path id="path1030" sodipodi:rx="27" sodipodi:ry="27" style="stroke-dashoffset:0;stroke:black;stroke-miterlimit:4;stroke-dasharray:none;stroke-width:0.1;fill:#f0f0ff;" sodipodi:type="arc" d="M59,32a27,27,0,1,1,-54,0,27,27,0,1,1,54,0z" transform="translate(64,0)" sodipodi:cy="32" sodipodi:cx="32"/>
 <g transform="matrix(0.707,0.707,-0.707,0.707,50.775565,-58.5)">
  <use xlink:href="#path1030" transform="translate(0.25,0.25)" height="256" width="512" y="0" x="0"/>
  <use xlink:href="#g1000" height="256" width="512" y="0" x="0"/>
 </g>
 <g transform="matrix(0.703,0.703,-0.707,0.707,114.7,-59.2)">
  <use xlink:href="#g1000" height="256" width="512" y="0" x="0"/>
 </g>
 <g transform="matrix(0.692,0.692,-0.707,0.707,180,-58.8)">
  <use xlink:href="#path1030" transform="translate(-0.5,0)" height="256" width="512" y="0" x="0"/>
  <use xlink:href="#g1000" height="256" width="512" y="0" x="0"/>
 </g>
 <g transform="matrix(0.672,0.672,-0.707,0.707,246,-57.2)">
  <use xlink:href="#path1030" transform="translate(-0.5,0)" height="256" width="512" y="0" x="0"/>
  <use xlink:href="#path1020" height="256" width="512" y="0" x="0"/>
  <use xlink:href="#g1000" transform="translate(0.5,0)" height="256" width="512" y="0" x="0"/>
 </g>
 <g transform="matrix(0.646,0.646,-0.707,0.707,312.5,-55.3)">
  <use xlink:href="#path1030" transform="translate(-1,0)" height="256" width="512" y="0" x="0"/>
  <use xlink:href="#path1020" height="256" width="512" y="0" x="0"/>
  <use xlink:href="#g1000" transform="translate(1,0)" height="256" width="512" y="0" x="0"/>
 </g>
 <g transform="matrix(0.612,0.612,-0.707,0.707,380,-52.8)">
  <use xlink:href="#path1030" transform="translate(-1.5,0)" height="256" width="512" y="0" x="0"/>
  <use xlink:href="#path1020" height="256" width="512" y="0" x="0"/>
  <use xlink:href="#g1000" transform="translate(1.5,0)" height="256" width="512" y="0" x="0"/>
 </g>
 <g transform="matrix(0.572,0.572,-0.707,0.707,447.7,-49.6)">
  <use xlink:href="#path1030" transform="translate(-2,0)" height="256" width="512" y="0" x="0"/>
  <use xlink:href="#path1020" height="256" width="512" y="0" x="0"/>
  <use xlink:href="#g1000" transform="translate(2,0)" height="256" width="512" y="0" x="0"/>
 </g>
 <g transform="matrix(0.525,0.525,-0.707,0.707,4.2,18.3)">
  <use xlink:href="#path1030" transform="translate(-2.5,0)" height="256" width="512" y="0" x="0"/>
  <use xlink:href="#path1020" height="256" width="512" y="0" x="0"/>
  <use xlink:href="#g1000" transform="translate(2.5,0)" height="256" width="512" y="0" x="0"/>
 </g>
 <g transform="matrix(0.473,0.473,-0.707,0.707,73.5,22.8)">
  <use xlink:href="#path1030" transform="translate(-3,0)" height="256" width="512" y="0" x="0"/>
  <use xlink:href="#path1020" height="256" width="512" y="0" x="0"/>
  <use xlink:href="#g1000" transform="translate(3,0)" height="256" width="512" y="0" x="0"/>
 </g>
 <g transform="matrix(0.416,0.416,-0.707,0.707,143,27.8)">
  <use xlink:href="#path1030" transform="translate(-4,0)" height="256" width="512" y="0" x="0"/>
  <use xlink:href="#path1020" height="256" width="512" y="0" x="0"/>
  <use xlink:href="#g1000" transform="translate(4,0)" height="256" width="512" y="0" x="0"/>
 </g>
 <g transform="matrix(0.354,0.354,-0.707,0.707,212.7,33.4)">
  <use xlink:href="#path1030" transform="translate(-5,0)" height="256" width="512" y="0" x="0"/>
  <use xlink:href="#path1020" height="256" width="512" y="0" x="0"/>
  <use xlink:href="#g1000" transform="translate(5,0)" height="256" width="512" y="0" x="0"/>
 </g>
 <g transform="matrix(0.288,0.288,-0.707,0.707,283,39.3)">
  <use xlink:href="#path1030" transform="translate(-6,0)" height="256" width="512" y="0" x="0"/>
  <use xlink:href="#path1020" height="256" width="512" y="0" x="0"/>
  <use xlink:href="#g1000" transform="translate(6,0)" height="256" width="512" y="0" x="0"/>
 </g>
 <g transform="matrix(0.218,0.218,-0.707,0.707,353.7,45.8)">
  <use xlink:href="#path1030" transform="translate(-8,0)" height="256" width="512" y="0" x="0"/>
  <use xlink:href="#path1020" height="256" width="512" y="0" x="0"/>
  <use xlink:href="#g1000" transform="translate(8,0)" height="256" width="512" y="0" x="0"/>
 </g>
 <g transform="matrix(0.147,0.147,-0.707,0.707,424.5,52.5)">
  <use xlink:href="#path1030" transform="translate(-12,0)" height="256" width="512" y="0" x="0"/>
  <use xlink:href="#path1030" transform="translate(-6,0)" height="256" width="512" y="0" x="0"/>
  <use xlink:href="#path1020" height="256" width="512" y="0" x="0"/>
  <use xlink:href="#path1020" transform="translate(6,0)" height="256" width="512" y="0" x="0"/>
  <use xlink:href="#g1000" transform="translate(12,0)" height="256" width="512" y="0" x="0"/>
 </g>
 <g transform="matrix(7.4e-2,7.4e-2,-0.707,0.707,495.5,59.3)">
  <use xlink:href="#path1030" transform="translate(-24,0)" height="256" width="512" y="0" x="0"/>
  <use xlink:href="#path1030" transform="translate(-12,0)" height="256" width="512" y="0" x="0"/>
  <use xlink:href="#path1020" height="256" width="512" y="0" x="0"/>
  <use xlink:href="#path1020" transform="translate(12,0)" height="256" width="512" y="0" x="0"/>
  <use xlink:href="#g1000" transform="translate(24,0)" height="256" width="512" y="0" x="0"/>
 </g>
 <g transform="translate(0,119)">
  <rect style="stroke-dashoffset:0;stroke:black;stroke-dasharray:none;stroke-miterlimit:4;stroke-width:0.05000006;fill:#1a1a1a;" inkscape:transform-center-x="21.636364" inkscape:transform-center-y="-28.545455" transform="matrix(0.707107,0.707107,-0.707107,0.707107,0,0)" height="54" width="2.8" y="-27" x="45.5"/>
  <rect style="stroke-dashoffset:0;stroke:black;stroke-dasharray:none;stroke-miterlimit:4;stroke-width:0.05;fill:#f0f0ff;" inkscape:transform-center-x="21.636364" inkscape:transform-center-y="-28.545455" transform="matrix(0.707107,0.707107,-0.707107,0.707107,0,0)" height="54" width="2.8" y="-27" x="43"/>
 </g>
 <g transform="matrix(7.4e-2,7.4e-2,-0.707,0.707,111.5,123.3)">
  <use xlink:href="#path1020" transform="translate(24,0)" height="256" width="512" y="0" x="0"/>
  <use xlink:href="#path1020" transform="translate(12,0)" height="256" width="512" y="0" x="0"/>
  <use xlink:href="#path1030" height="256" width="512" y="0" x="0"/>
  <use xlink:href="#path1030" transform="translate(-12,0)" height="256" width="512" y="0" x="0"/>
  <use xlink:href="#g1010" transform="translate(-24,0)" height="256" width="512" y="0" x="0"/>
 </g>
 <g transform="matrix(0.147,0.147,-0.707,0.707,168.5,116.5)">
  <use xlink:href="#path1020" transform="translate(12,0)" height="256" width="512" y="0" x="0"/>
  <use xlink:href="#path1020" transform="translate(6,0)" height="256" width="512" y="0" x="0"/>
  <use xlink:href="#path1030" height="256" width="512" y="0" x="0"/>
  <use xlink:href="#path1030" transform="translate(-6,0)" height="256" width="512" y="0" x="0"/>
  <use xlink:href="#g1010" transform="translate(-12,0)" height="256" width="512" y="0" x="0"/>
 </g>
 <g transform="matrix(0.218,0.218,-0.707,0.707,225.7,109.8)">
  <use xlink:href="#path1020" transform="translate(8,0)" height="256" width="512" y="0" x="0"/>
  <use xlink:href="#path1030" height="256" width="512" y="0" x="0"/>
  <use xlink:href="#g1010" transform="translate(-8,0)" height="256" width="512" y="0" x="0"/>
 </g>
 <g transform="matrix(0.288,0.288,-0.707,0.707,283,103.3)">
  <use xlink:href="#path1020" transform="translate(6,0)" height="256" width="512" y="0" x="0"/>
  <use xlink:href="#path1030" height="256" width="512" y="0" x="0"/>
  <use xlink:href="#g1010" transform="translate(-6,0)" height="256" width="512" y="0" x="0"/>
 </g>
 <g transform="matrix(0.354,0.354,-0.707,0.707,340.7,97.4)">
  <use xlink:href="#path1020" transform="translate(5,0)" height="256" width="512" y="0" x="0"/>
  <use xlink:href="#path1030" height="256" width="512" y="0" x="0"/>
  <use xlink:href="#g1010" transform="translate(-5,0)" height="256" width="512" y="0" x="0"/>
 </g>
 <g transform="matrix(0.416,0.416,-0.707,0.707,399,91.8)">
  <use xlink:href="#path1020" transform="translate(4,0)" height="256" width="512" y="0" x="0"/>
  <use xlink:href="#path1030" height="256" width="512" y="0" x="0"/>
  <use xlink:href="#g1010" transform="translate(-4,0)" height="256" width="512" y="0" x="0"/>
 </g>
 <g transform="matrix(0.473,0.473,-0.707,0.707,457.3,86.8)">
  <use xlink:href="#path1020" transform="translate(3,0)" height="256" width="512" y="0" x="0"/>
  <use xlink:href="#path1030" height="256" width="512" y="0" x="0"/>
  <use xlink:href="#g1010" transform="translate(-3,0)" height="256" width="512" y="0" x="0"/>
 </g>
 <g transform="matrix(0.525,0.525,-0.707,0.707,4.2,146.3)">
  <use xlink:href="#path1020" transform="translate(2.5,0)" height="256" width="512" y="0" x="0"/>
  <use xlink:href="#path1030" height="256" width="512" y="0" x="0"/>
  <use xlink:href="#g1010" transform="translate(-2.5,0)" height="256" width="512" y="0" x="0"/>
 </g>
 <g transform="matrix(0.572,0.572,-0.707,0.707,63.7,142.4)">
  <use xlink:href="#path1020" transform="translate(2,0)" height="256" width="512" y="0" x="0"/>
  <use xlink:href="#path1030" height="256" width="512" y="0" x="0"/>
  <use xlink:href="#g1010" transform="translate(-2,0)" height="256" width="512" y="0" x="0"/>
 </g>
 <g transform="matrix(0.612,0.612,-0.707,0.707,124,139.2)">
  <use xlink:href="#path1020" transform="translate(1.5,0)" height="256" width="512" y="0" x="0"/>
  <use xlink:href="#path1030" height="256" width="512" y="0" x="0"/>
  <use xlink:href="#g1010" transform="translate(-1.5,0)" height="256" width="512" y="0" x="0"/>
 </g>
 <g transform="matrix(0.646,0.646,-0.707,0.707,184.5,136.7)">
  <use xlink:href="#path1020" transform="translate(1.5,0)" height="256" width="512" y="0" x="0"/>
  <use xlink:href="#path1030" height="256" width="512" y="0" x="0"/>
  <use xlink:href="#g1010" transform="translate(-1.5,0)" height="256" width="512" y="0" x="0"/>
 </g>
 <g transform="matrix(0.672,0.672,-0.707,0.707,246,134.8)">
  <use xlink:href="#path1020" transform="translate(1.5,0)" height="256" width="512" y="0" x="0"/>
  <use xlink:href="#path1030" height="256" width="512" y="0" x="0"/>
  <use xlink:href="#g1010" transform="translate(-1,0)" height="256" width="512" y="0" x="0"/>
 </g>
 <g transform="matrix(0.692,0.692,-0.707,0.707,308,133.2)">
  <use xlink:href="#path1020" transform="translate(1.5,0)" height="256" width="512" y="0" x="0"/>
  <use xlink:href="#path1030" transform="translate(0.5,0)" height="256" width="512" y="0" x="0"/>
  <use xlink:href="#g1010" transform="translate(-0.5,0)" height="256" width="512" y="0" x="0"/>
 </g>
 <g transform="matrix(0.703,0.703,-0.707,0.707,370.7,132.8)">
  <use xlink:href="#path1020" transform="translate(1,0)" height="256" width="512" y="0" x="0"/>
  <use xlink:href="#path1030" transform="translate(0.5,0)" height="256" width="512" y="0" x="0"/>
  <use xlink:href="#g1010" height="256" width="512" y="0" x="0"/>
 </g>
 <g transform="matrix(0.707,0.707,-0.707,0.707,434.5,133.5)">
  <use xlink:href="#path1020" transform="translate(0.5,0)" height="256" width="512" y="0" x="0"/>
  <use xlink:href="#g1010" height="256" width="512" y="0" x="0"/>
 </g>
</svg>
